<?xml version="1.0" encoding="UTF-8"?>
<!--
  HearoPilot — Play Store icon 512×512
  Gradient: #1E3A8A (top-left) → #5E17EB (bottom-right)
  ViewBox mirrors the original Android vector viewport (3637×3638)
  so the logo centering is identical to the adaptive icon on device.
-->
<svg xmlns="http://www.w3.org/2000/svg"
     width="512" height="512"
     viewBox="519 519 2600 2600">

  <defs>
    <linearGradient id="bg" x1="0%" y1="0%" x2="100%" y2="100%">
      <stop offset="0%" stop-color="#1E3A8A"/>
      <stop offset="100%" stop-color="#5E17EB"/>
    </linearGradient>
  </defs>

  <!-- Background -->
  <rect width="3637" height="3638" fill="url(#bg)"/>

  <!-- Logo: same group transform as ic_launcher_foreground.xml -->
  <g transform="translate(727.6999,727.6) scale(0.5998351,0.6)"
     fill="#FFFFFF" fill-rule="evenodd">

    <!-- Wing / shield shape -->
    <path d="M896.2,1040 L896.2,1040 1173,1316.7
             C1528.9,1672.4 2108.9,1672.4 2464.8,1316.7
             L2741.6,1040 2741.6,1040
             2808,1084.9
             C3060.7,1272.7 3217,1532.3 3217,1819
               3217,2105.7 3060.7,2365.3 2808,2553.1
             L2741.6,2598 2741.6,2592.3
             2464.8,2315.6
             C2108.9,1959.8 1528.9,1959.8 1173,2315.6
             L896.2,2592.3 896.2,2592.3 896.2,2595.9
             833,2553.1
             C580.3,2365.3 424,2105.7 424,1819
               424,1532.3 580.3,1272.7 833,1084.9
             L896.2,1042.1Z"/>

    <!-- Sparkle / star shape -->
    <path d="M2758.9,371
             L2829.3,491.6
             C2840.7,511.1 2856.9,527.3 2876.4,538.7
             L2997,609.2
             C3003.2,612.8 3007,619.4 3007,626.5
               3007,633.6 3003.2,640.3 2997,643.9
             L2876.4,714.3
             C2856.9,725.7 2840.7,741.9 2829.3,761.4
             L2758.9,882
             C2755.3,888.2 2748.6,892 2741.5,892
               2734.4,892 2727.8,888.2 2724.1,882
             L2653.7,761.4
             C2642.3,741.9 2626.1,725.7 2606.6,714.3
             L2486,643.9
             C2479.8,640.3 2476,633.6 2476,626.5
               2476,619.4 2479.8,612.8 2486,609.2
             L2606.6,538.7
             C2626.1,527.3 2642.3,511.1 2653.7,491.6
             L2724.1,371
             C2727.8,364.8 2734.4,361 2741.5,361
               2748.6,361 2755.3,364.8 2758.9,371Z"/>
  </g>

</svg>
